<svg xmlns="http://www.w3.org/2000/svg" width="451" height="320.125" viewBox="0 0 451 320.125">
  <g id="Group_35" data-name="Group 35" transform="translate(2146 562)">
    <rect id="Rectangle_4" data-name="Rectangle 4" width="450.694" height="320.125" rx="13" transform="translate(-2146 -562)" fill="#9dc88d"/>
    <path id="Subtraction_3" data-name="Subtraction 3" d="M165,192H24.151A104.565,104.565,0,0,1,0,125a105.762,105.762,0,0,1,2.133-21.161,104.421,104.421,0,0,1,15.8-37.546,105.308,105.308,0,0,1,46.2-38.042,104.468,104.468,0,0,1,19.709-6.118,106.035,106.035,0,0,1,42.323,0,104.408,104.408,0,0,1,37.545,15.8c.431.291.866.59,1.293.888V192Z" transform="translate(-1860 -434)" fill="#fff" opacity="0.144"/>
    <path id="Subtraction_1" data-name="Subtraction 1" d="M145,261c-3,0-6.029-.128-9-.38V51.381c2.975-.253,6-.38,9-.38a105.776,105.776,0,0,1,21.161,2.133,104.425,104.425,0,0,1,37.545,15.8,105.307,105.307,0,0,1,38.042,46.2,104.472,104.472,0,0,1,6.118,19.709,106.022,106.022,0,0,1,0,42.323,104.423,104.423,0,0,1-15.8,37.546,105.307,105.307,0,0,1-46.2,38.042,104.475,104.475,0,0,1-19.71,6.118A105.777,105.777,0,0,1,145,261Z" transform="translate(-1559 -276) rotate(180)" fill="#fff" opacity="0.144"/>
  </g>
</svg>
